<svg width="114" height="114" viewBox="0 0 114 114" fill="none" xmlns="http://www.w3.org/2000/svg">
<circle cx="57" cy="57" r="57" fill="#F3BA2F"/>
<g clip-path="url(#clip0_19_462)">
<path d="M40.0231 50.8773L56.1418 34.7593L72.269 50.8858L81.648 41.5068L56.1418 16L30.6441 41.4983L40.0231 50.8773Z" fill="white"/>
<path d="M33.3997 57.4986L24.0209 48.1198L14.6416 57.499L24.0204 66.8778L33.3997 57.4986Z" fill="white"/>
<path d="M40.023 64.1227L56.1417 80.2408L72.2683 64.1149L81.6525 73.4886L81.6479 73.4938L56.1417 99L30.6434 73.5024L30.6303 73.4892L40.023 64.1227Z" fill="white"/>
<path d="M88.2635 66.8822L97.6428 57.5029L88.264 48.1241L78.8847 57.5034L88.2635 66.8822Z" fill="white"/>
<path d="M65.6551 57.4951H65.659L56.1418 47.9778L49.1083 55.0112H49.1077L48.3001 55.8195L46.633 57.4866L46.6199 57.4997L46.633 57.5134L56.1418 67.0222L65.659 57.5049L65.6636 57.4997L65.6551 57.4951Z" fill="white"/>
</g>
<defs>
<clipPath id="clip0_19_462">
<rect width="83" height="83" fill="white" transform="translate(15 16)"/>
</clipPath>
</defs>
</svg>