<svg
            width="24"
            height="24"
            viewBox="0 0 24 24"
            fill="none"
            xmlns="http://www.w3.org/2000/svg"
          >
            <g clip-path="url(#clip0_351_17774)">
              <mask
                id="mask0_351_17774"
                style="mask-type:alpha;"
                maskUnits="userSpaceOnUse"
                x="0"
                y="0"
                width="40"
                height="40"
              >
                <rect width="40" height="40" fill="#D9D9D9"></rect>
              </mask>
              <g mask="url(#mask0_351_17774)">
                <path
                  fill-rule="evenodd"
                  clip-rule="evenodd"
                  d="M7.19961 3.60002C7.19961 2.93728 7.73687 2.40002 8.39961 2.40002C9.06235 2.40002 9.59961 2.93728 9.59961 3.60002L9.59961 12C9.59961 12.6628 9.06235 13.2 8.39961 13.2C7.73687 13.2 7.19961 12.6628 7.19961 12L7.19961 3.60002ZM11.9996 3.00002C12.6624 3.00002 13.1996 3.53728 13.1996 4.20002L13.1996 19.8C13.1996 20.4628 12.6624 21 11.9996 21C11.3369 21 10.7996 20.4628 10.7996 19.8L10.7996 4.20002C10.7996 3.53728 11.3369 3.00002 11.9996 3.00002ZM15.5996 8.40002C16.2624 8.40002 16.7996 8.93728 16.7996 9.60002V18C16.7996 18.6628 16.2624 19.2 15.5996 19.2C14.9369 19.2 14.3996 18.6628 14.3996 18V9.60002C14.3996 8.93728 14.9369 8.40002 15.5996 8.40002ZM19.1996 7.20002C19.8624 7.20002 20.3996 7.73728 20.3996 8.40002V12.3C20.3996 12.9627 19.8624 13.5 19.1996 13.5C18.5369 13.5 17.9996 12.9627 17.9996 12.3V8.40002C17.9996 7.73728 18.5369 7.20002 19.1996 7.20002ZM3.59961 8.00005C3.59961 7.33731 4.13687 6.80005 4.79961 6.80005C5.46235 6.80005 5.99961 7.33731 5.99961 8.00005V12C5.99961 12.6628 5.46235 13.2 4.79961 13.2C4.13687 13.2 3.59961 12.6628 3.59961 12V8.00005Z"
                  fill="#FFB600"
                ></path>
              </g>
            </g>
            <defs>
              <clipPath id="clip0_351_17774">
                <rect width="24" height="24" fill="white"></rect>
              </clipPath>
            </defs>
          </svg>