<svg width="1957" height="921" viewBox="0 0 1957 921" fill="none" xmlns="http://www.w3.org/2000/svg">
<g opacity="0.4">
<path d="M1 0L1.00004 900" stroke="#252832"/>
<path d="M116 0L116 900" stroke="#252832"/>
<path d="M231 0L231 900" stroke="#252832"/>
<path d="M346 0L346 900" stroke="#252832"/>
<path d="M461 0L461 900" stroke="#252832"/>
<path d="M576 0L576 900" stroke="#252832"/>
<path d="M691 0L691 900" stroke="#252832"/>
<path d="M806 0L806 900" stroke="#252832"/>
<path d="M921 0L921 900" stroke="#252832"/>
<path d="M1036 0L1036 900" stroke="#252832"/>
<path d="M1151 0L1151 900" stroke="#252832"/>
<path d="M1266 0L1266 900" stroke="#252832"/>
<path d="M1381 0L1381 900" stroke="#252832"/>
<path d="M1496 0L1496 900" stroke="#252832"/>
<path d="M1611 0L1611 900" stroke="#252832"/>
<path d="M1726 0L1726 900" stroke="#252832"/>
<path d="M1841 0L1841 900" stroke="#252832"/>
<path d="M1956 0L1956 900" stroke="#252832"/>
<path d="M1 115L1939 115" stroke="#252832"/>
<path d="M1 230L1939 230" stroke="#252832"/>
<path d="M1 345L1939 345.001" stroke="#252832"/>
<path d="M1 460L1939 460.001" stroke="#252832"/>
<path d="M1 575.001L1939 575.001" stroke="#252832"/>
<path d="M1 690.001L1939 690.001" stroke="#252832"/>
<path d="M1 805.001L1939 805.001" stroke="#252832"/>
<path d="M1 920.001L1939 920.001" stroke="#252832"/>
<path d="M221 862.5H1804" stroke="black"/>
</g>
<rect x="1" y="602" width="1938" height="318" fill="url(#paint0_linear_2001_1003)"/>
<rect opacity="0.5" x="35" width="1920" height="652" fill="url(#paint1_linear_2001_1003)"/>
<defs>
<linearGradient id="paint0_linear_2001_1003" x1="970" y1="602" x2="970" y2="920" gradientUnits="userSpaceOnUse">
<stop stopColor="#0A0A0D" stop-opacity="0"/>
<stop offset="1" stopColor="#0A0A0D"/>
</linearGradient>
<linearGradient id="paint1_linear_2001_1003" x1="995" y1="652" x2="995" y2="-206.692" gradientUnits="userSpaceOnUse">
<stop stopColor="#5541D3" stop-opacity="0"/>
<stop offset="1" stopColor="#7741D3" stop-opacity="0.7"/>
</linearGradient>
</defs>
</svg>
