<svg data-testid="how-it-word-image-in-card-1" width="64" height="64" viewBox="0 0 64 64" xmlns="http://www.w3.org/2000/svg">
  <!-- Background Shape -->
  <path
    d="M54.668 27.173H46.9613C40.6413 27.173 35.4946 22.0263 35.4946 15.7063V7.99967C35.4946 6.53301 34.2946 5.33301 32.828 5.33301H21.5213C13.308 5.33301 6.66797 10.6663 6.66797 20.1863V43.813C6.66797 53.333 13.308 58.6663 21.5213 58.6663H42.4813C50.6946 58.6663 57.3346 53.333 57.3346 43.813V29.8397C57.3346 28.373 56.1346 27.173 54.668 27.173Z"
    fill="#C3BBFD"
    opacity="0.8"
  ></path>
  <path
    d="M42.1351 5.89364C41.0418 4.80031 39.1484 5.54697 39.1484 7.06697V16.3736C39.1484 20.267 42.4551 23.4936 46.4818 23.4936C49.0151 23.5203 52.5351 23.5203 55.5484 23.5203C57.0684 23.5203 57.8684 21.7336 56.8018 20.667C52.9618 16.8003 46.0818 9.84031 42.1351 5.89364Z"
    fill="#7B61FF"
  ></path>
  <path
    d="M36 36.667H20C18.9067 36.667 18 35.7603 18 34.667C18 33.5737 18.9067 32.667 20 32.667H36C37.0933 32.667 38 33.5737 38 34.667C38 35.7603 37.0933 36.667 36 36.667Z"
    fill="#7B61FF"
  ></path>
  <path
    d="M30.6667 47.333H20C18.9067 47.333 18 46.4263 18 45.333C18 44.2397 18.9067 43.333 20 43.333H30.6667C31.76 43.333 32.6667 44.2397 32.6667 45.333C32.6667 46.4263 31.76 47.333 30.6667 47.333Z"
    fill="#7B61FF"
  ></path>
</svg>
