<svg data-testid="how-it-word-image-in-card-3" width="64" height="64" viewBox="0 0 64 64" fill="currentColor" xmlns="http://www.w3.org/2000/svg">
  <path d="M54.668 44.667H48.668V38.667C48.668 37.5737 47.7613 36.667 46.668 36.667C45.5746 36.667 44.668 37.5737 44.668 38.667V44.667H38.668C37.5746 44.667 36.668 45.5737 36.668 46.667C36.668 47.7603 37.5746 48.667 38.668 48.667H44.668V54.667C44.668 55.7603 45.5746 56.667 46.668 56.667C47.7613 56.667 48.668 55.7603 48.668 54.667V48.667H54.668C55.7613 48.667 56.668 47.7603 56.668 46.667C56.668 45.5737 55.7613 44.667 54.668 44.667Z" fill="#7B61FF" ></path>
  <path opacity="0.4" d="M58.6667 22.7197V10.613C58.6667 6.85301 56.96 5.33301 52.72 5.33301H41.9467C37.7067 5.33301 36 6.85301 36 10.613V22.693C36 26.4797 37.7067 27.973 41.9467 27.973H52.72C56.96 27.9997 58.6667 26.4797 58.6667 22.7197Z" fill="#7B61FF" ></path>
  <path d="M27.9987 22.7197V10.613C27.9987 6.85301 26.292 5.33301 22.052 5.33301H11.2787C7.0387 5.33301 5.33203 6.85301 5.33203 10.613V22.693C5.33203 26.4797 7.0387 27.973 11.2787 27.973H22.052C26.292 27.9997 27.9987 26.4797 27.9987 22.7197Z" fill="#7B61FF" ></path>
  <path opacity="0.4" d="M27.9987 52.72V41.9467C27.9987 37.7067 26.292 36 22.052 36H11.2787C7.0387 36 5.33203 37.7067 5.33203 41.9467V52.72C5.33203 56.96 7.0387 58.6667 11.2787 58.6667H22.052C26.292 58.6667 27.9987 56.96 27.9987 52.72Z" fill="#7B61FF" ></path>
</svg>
