<svg width="118" height="45" viewBox="0 0 118 45" fill="none" xmlns="http://www.w3.org/2000/svg">
<path d="M0.117188 3.5498H5.96177V15.0441L15.9365 3.5498H22.7162L12.5467 14.7324L23.4955 30.8245H16.6379L8.61131 18.5899L5.96177 21.4732V30.8245H0.117188V3.5498Z" fill="white"/>
<path d="M34.5987 20.4212L24.2733 3.5498H31.1309L37.6379 14.4986L43.7552 3.5498H49.9894L40.4433 20.4212V30.8245H34.5987V20.4212Z" fill="white"/>
<path d="M59.8947 8.38132H51.1279V3.5498H74.5062V8.38132H65.7393V30.8245H59.8947V8.38132Z" fill="white"/>
<path d="M0 37.1326H1.74453V40.3923L4.72187 37.1326H6.74553L3.71004 40.3039L6.97814 44.8674H4.93122L2.53539 41.3978L1.74453 42.2155V44.8674H0V37.1326Z" fill="white"/>
<path d="M7.91083 37.1326H9.56232L13.1444 42.105V37.1326H14.889V44.8674H13.2375L9.65536 39.895V44.8674H7.91083V37.1326Z" fill="white"/>
<path d="M20.0035 45C19.4918 45 19.0033 44.9263 18.5381 44.779C18.0807 44.6317 17.6736 44.3996 17.317 44.0829C16.968 43.7661 16.6889 43.361 16.4796 42.8674C16.2702 42.3665 16.1656 41.7624 16.1656 41.0552V40.8343C16.1656 40.1565 16.2702 39.5783 16.4796 39.0994C16.6889 38.6133 16.968 38.2155 17.317 37.9061C17.6736 37.5967 18.0807 37.3683 18.5381 37.221C19.0033 37.0737 19.4918 37 20.0035 37C20.5153 37 20.9999 37.0737 21.4573 37.221C21.9225 37.3683 22.3296 37.5967 22.6785 37.9061C23.0351 38.2155 23.3181 38.6133 23.5275 39.0994C23.7368 39.5783 23.8415 40.1565 23.8415 40.8343V41.0552C23.8415 41.7624 23.7368 42.3665 23.5275 42.8674C23.3181 43.361 23.0351 43.7661 22.6785 44.0829C22.3296 44.3996 21.9225 44.6317 21.4573 44.779C20.9999 44.9263 20.5153 45 20.0035 45ZM20.0035 43.6077C20.2672 43.6077 20.5191 43.5672 20.7595 43.4862C21.0076 43.3978 21.2247 43.2541 21.4108 43.0552C21.5969 42.8564 21.7442 42.5948 21.8527 42.2707C21.969 41.9466 22.0272 41.5414 22.0272 41.0552V40.8343C22.0272 40.3775 21.969 39.9945 21.8527 39.6851C21.7442 39.3757 21.5969 39.1252 21.4108 38.9337C21.2247 38.7422 21.0076 38.6059 20.7595 38.5249C20.5191 38.4365 20.2672 38.3923 20.0035 38.3923C19.7399 38.3923 19.4841 38.4365 19.2359 38.5249C18.9956 38.6059 18.7824 38.7422 18.5963 38.9337C18.4102 39.1252 18.259 39.3757 18.1427 39.6851C18.0341 39.9945 17.9799 40.3775 17.9799 40.8343V41.0552C17.9799 41.5414 18.0341 41.9466 18.1427 42.2707C18.259 42.5948 18.4102 42.8564 18.5963 43.0552C18.7824 43.2541 18.9956 43.3978 19.2359 43.4862C19.4841 43.5672 19.7399 43.6077 20.0035 43.6077Z" fill="white"/>
<path d="M24.2499 37.1326H26.0642L27.3319 42.5912L28.902 37.1326H30.5303L32.1352 42.6133L33.5076 37.1326H35.1823L33.0889 44.8674H31.3444L29.658 39.3425L28.0879 44.8674H26.3434L24.2499 37.1326Z" fill="white"/>
<path d="M41.0611 41.9171L37.979 37.1326H40.026L41.9682 40.2376L43.7942 37.1326H45.655L42.8056 41.9171V44.8674H41.0611V41.9171Z" fill="white"/>
<path d="M49.6592 45C49.1475 45 48.659 44.9263 48.1938 44.779C47.7364 44.6317 47.3293 44.3996 46.9727 44.0829C46.6238 43.7661 46.3446 43.361 46.1353 42.8674C45.9259 42.3665 45.8213 41.7624 45.8213 41.0552V40.8343C45.8213 40.1565 45.9259 39.5783 46.1353 39.0994C46.3446 38.6133 46.6238 38.2155 46.9727 37.9061C47.3293 37.5967 47.7364 37.3683 48.1938 37.221C48.659 37.0737 49.1475 37 49.6592 37C50.171 37 50.6556 37.0737 51.113 37.221C51.5782 37.3683 51.9853 37.5967 52.3342 37.9061C52.6909 38.2155 52.9739 38.6133 53.1832 39.0994C53.3926 39.5783 53.4972 40.1565 53.4972 40.8343V41.0552C53.4972 41.7624 53.3926 42.3665 53.1832 42.8674C52.9739 43.361 52.6909 43.7661 52.3342 44.0829C51.9853 44.3996 51.5782 44.6317 51.113 44.779C50.6556 44.9263 50.171 45 49.6592 45ZM49.6592 43.6077C49.9229 43.6077 50.1749 43.5672 50.4152 43.4862C50.6633 43.3978 50.8804 43.2541 51.0665 43.0552C51.2526 42.8564 51.3999 42.5948 51.5085 42.2707C51.6248 41.9466 51.6829 41.5414 51.6829 41.0552V40.8343C51.6829 40.3775 51.6248 39.9945 51.5085 39.6851C51.3999 39.3757 51.2526 39.1252 51.0665 38.9337C50.8804 38.7422 50.6633 38.6059 50.4152 38.5249C50.1749 38.4365 49.9229 38.3923 49.6592 38.3923C49.3956 38.3923 49.1398 38.4365 48.8917 38.5249C48.6513 38.6059 48.4381 38.7422 48.252 38.9337C48.0659 39.1252 47.9147 39.3757 47.7984 39.6851C47.6899 39.9945 47.6356 40.3775 47.6356 40.8343V41.0552C47.6356 41.5414 47.6899 41.9466 47.7984 42.2707C47.9147 42.5948 48.0659 42.8564 48.252 43.0552C48.4381 43.2541 48.6513 43.3978 48.8917 43.4862C49.1398 43.5672 49.3956 43.6077 49.6592 43.6077Z" fill="white"/>
<path d="M58.0884 45C57.5612 45 57.0844 44.9337 56.6579 44.8011C56.2392 44.6685 55.8826 44.4696 55.5879 44.2044C55.2933 43.9319 55.0646 43.593 54.9018 43.1878C54.7389 42.7827 54.6575 42.3112 54.6575 41.7735V37.1326H56.4021V41.6188C56.4021 42.2818 56.5377 42.779 56.8091 43.1105C57.0805 43.442 57.5069 43.6077 58.0884 43.6077C58.6699 43.6077 59.0964 43.442 59.3678 43.1105C59.6391 42.779 59.7748 42.2855 59.7748 41.6298V37.1326H61.5193V41.7735C61.5193 42.3112 61.4379 42.7827 61.2751 43.1878C61.12 43.593 60.8913 43.9319 60.5889 44.2044C60.2943 44.4696 59.9338 44.6685 59.5073 44.8011C59.0886 44.9337 58.6157 45 58.0884 45Z" fill="white"/>
<path d="M63.0367 37.1326H66.3513C66.8631 37.1326 67.3089 37.1915 67.6888 37.3094C68.0765 37.4273 68.3983 37.5967 68.6541 37.8177C68.91 38.0313 69.1038 38.2928 69.2356 38.6022C69.3675 38.9042 69.4334 39.2431 69.4334 39.6188C69.4334 40.1565 69.286 40.6243 68.9914 41.0221C68.7045 41.4125 68.2703 41.6924 67.6888 41.8619L69.666 44.8674H67.6423L65.9327 42.0387H64.7813V44.8674H63.0367V37.1326ZM66.0024 40.7348C66.3281 40.7348 66.5956 40.7127 66.8049 40.6685C67.022 40.6169 67.1965 40.547 67.3283 40.4586C67.4601 40.3628 67.5531 40.2449 67.6074 40.105C67.6617 39.965 67.6888 39.8029 67.6888 39.6188C67.6888 39.4346 67.6617 39.2726 67.6074 39.1326C67.5531 38.9926 67.4601 38.8785 67.3283 38.7901C67.1965 38.6943 67.022 38.6243 66.8049 38.5801C66.5956 38.5285 66.3281 38.5028 66.0024 38.5028H64.7813V40.7348H66.0024Z" fill="white"/>
<path d="M75.4279 38.5028H72.8111V37.1326H79.7893V38.5028H77.1724V44.8674H75.4279V38.5028Z" fill="white"/>
<path d="M80.7156 37.1326H84.0302C84.5419 37.1326 84.9878 37.1915 85.3677 37.3094C85.7553 37.4273 86.0771 37.5967 86.333 37.8177C86.5888 38.0313 86.7827 38.2928 86.9145 38.6022C87.0463 38.9042 87.1122 39.2431 87.1122 39.6188C87.1122 40.1565 86.9649 40.6243 86.6703 41.0221C86.3834 41.4125 85.9492 41.6924 85.3677 41.8619L87.3448 44.8674H85.3212L83.6115 42.0387H82.4601V44.8674H80.7156V37.1326ZM83.6813 40.7348C84.0069 40.7348 84.2744 40.7127 84.4838 40.6685C84.7009 40.6169 84.8753 40.547 85.0071 40.4586C85.1389 40.3628 85.232 40.2449 85.2863 40.105C85.3405 39.965 85.3677 39.8029 85.3677 39.6188C85.3677 39.4346 85.3405 39.2726 85.2863 39.1326C85.232 38.9926 85.1389 38.8785 85.0071 38.7901C84.8753 38.6943 84.7009 38.6243 84.4838 38.5801C84.2744 38.5285 84.0069 38.5028 83.6813 38.5028H82.4601V40.7348H83.6813Z" fill="white"/>
<path d="M93.0821 43.2873H90.0699L89.4535 44.8674H87.7555L90.7794 37.1326H92.5239L95.5478 44.8674H93.7102L93.0821 43.2873ZM90.6049 41.9171H92.5588L91.5819 39.232L90.6049 41.9171Z" fill="white"/>
<path d="M96.3669 37.1326H99.2163C99.8288 37.1326 100.375 37.2136 100.856 37.3757C101.337 37.5304 101.744 37.7624 102.077 38.0718C102.411 38.3812 102.667 38.768 102.845 39.232C103.023 39.6961 103.112 40.2302 103.112 40.8343V41.0552C103.112 41.674 103.019 42.2228 102.833 42.7017C102.655 43.1731 102.391 43.5709 102.042 43.895C101.701 44.2118 101.283 44.4549 100.786 44.6243C100.29 44.7864 99.728 44.8674 99.1 44.8674H96.3669V37.1326ZM98.9837 43.4972C99.2938 43.4972 99.5884 43.4567 99.8676 43.3757C100.147 43.2873 100.391 43.1473 100.6 42.9558C100.817 42.7643 100.988 42.5138 101.112 42.2044C101.236 41.895 101.298 41.512 101.298 41.0552V40.8343C101.298 40.407 101.24 40.046 101.124 39.7514C101.007 39.4494 100.848 39.2063 100.647 39.0221C100.453 38.8379 100.22 38.7053 99.949 38.6243C99.6854 38.5433 99.4024 38.5028 99.1 38.5028H98.1114V43.4972H98.9837Z" fill="white"/>
<path d="M104.391 37.1326H110.09V38.5028H106.147V40.2265H109.741V41.5525H106.147V43.4972H110.09V44.8674H104.391V37.1326Z" fill="white"/>
<path d="M111.371 37.1326H114.685C115.197 37.1326 115.643 37.1915 116.023 37.3094C116.411 37.4273 116.732 37.5967 116.988 37.8177C117.244 38.0313 117.438 38.2928 117.57 38.6022C117.701 38.9042 117.767 39.2431 117.767 39.6188C117.767 40.1565 117.62 40.6243 117.325 41.0221C117.039 41.4125 116.604 41.6924 116.023 41.8619L118 44.8674H115.976L114.267 42.0387H113.115V44.8674H111.371V37.1326ZM114.336 40.7348C114.662 40.7348 114.93 40.7127 115.139 40.6685C115.356 40.6169 115.531 40.547 115.662 40.4586C115.794 40.3628 115.887 40.2449 115.941 40.105C115.996 39.965 116.023 39.8029 116.023 39.6188C116.023 39.4346 115.996 39.2726 115.941 39.1326C115.887 38.9926 115.794 38.8785 115.662 38.7901C115.531 38.6943 115.356 38.6243 115.139 38.5801C114.93 38.5285 114.662 38.5028 114.336 38.5028H113.115V40.7348H114.336Z" fill="white"/>
<rect x="82" y="9" width="2" height="22" rx="1" fill="white"/>
<rect x="90" y="11" width="2" height="19" rx="1" fill="white"/>
<rect x="98" y="9" width="2" height="22" rx="1" fill="white"/>
<rect x="114" y="2" width="2" height="29" rx="1" fill="white"/>
<rect x="106" y="10" width="2" height="18" rx="1" fill="white"/>
<rect x="80" y="16" width="6" height="8" rx="1" fill="white"/>
<rect x="96" y="14" width="6" height="8" rx="1" fill="white"/>
<rect x="104" y="12" width="6" height="14" rx="1" fill="white"/>
<rect x="112" y="8" width="6" height="16" rx="1" fill="white"/>
<rect x="88" y="10" width="6" height="14" rx="1" fill="white"/>
<circle cx="99" cy="5" r="2" fill="white"/>
<circle cx="115" cy="2" r="2" fill="white"/>
</svg>
