<svg data-testid="how-it-word-image-in-card-2" width="64" height="64" viewBox="0 0 64 64" fill="currentColor" xmlns="http://www.w3.org/2000/svg">
  <path opacity="1" d="M7.38536 26.6663C6.2387 26.6663 5.33203 25.7597 5.33203 24.613V18.453C5.33203 11.2263 11.2254 5.33301 18.452 5.33301H24.612C25.7587 5.33301 26.6654 6.23967 26.6654 7.38634C26.6654 8.53301 25.7587 9.43967 24.612 9.43967H18.452C13.4654 9.43967 9.4387 13.493 9.4387 18.453V24.613C9.4387 25.7597 8.50536 26.6663 7.38536 26.6663Z" fill="#C3BBFD"></path>
  <path opacity="1" d="M56.612 26.6663C55.492 26.6663 54.5587 25.7597 54.5587 24.613V18.453C54.5587 13.4663 50.5054 9.43967 45.5454 9.43967H39.3854C38.2387 9.43967 37.332 8.50634 37.332 7.38634C37.332 6.26634 38.2387 5.33301 39.3854 5.33301H45.5454C52.772 5.33301 58.6654 11.2263 58.6654 18.453V24.613C58.6654 25.7597 57.7587 26.6663 56.612 26.6663Z" fill="#C3BBFD"></path>
  <path d="M45.5452 58.6668H41.8385C40.7185 58.6668 39.7852 57.7601 39.7852 56.6135C39.7852 55.4935 40.6918 54.5601 41.8385 54.5601H45.5452C50.5318 54.5601 54.5585 50.5068 54.5585 45.5468V41.8668C54.5585 40.7468 55.4652 39.8135 56.6118 39.8135C57.7318 39.8135 58.6652 40.7201 58.6652 41.8668V45.5468C58.6652 52.7735 52.7718 58.6668 45.5452 58.6668Z" fill="#7B61FF"></path>
  <path d="M24.612 58.6663H18.452C11.2254 58.6663 5.33203 52.773 5.33203 45.5463V39.3863C5.33203 38.2397 6.2387 37.333 7.38536 37.333C8.53203 37.333 9.4387 38.2397 9.4387 39.3863V45.5463C9.4387 50.533 13.492 54.5597 18.452 54.5597H24.612C25.732 54.5597 26.6654 55.4663 26.6654 56.613C26.6654 57.7597 25.7587 58.6663 24.612 58.6663Z" fill="#7B61FF"></path>
  <path d="M49.2254 29.9463H45.5988H18.3988H14.7721C13.6254 29.9463 12.7188 30.8796 12.7188 31.9996C12.7188 33.1196 13.6254 34.053 14.7721 34.053H18.3988H45.5988H49.2254C50.3721 34.053 51.2787 33.1196 51.2787 31.9996C51.2787 30.8796 50.3721 29.9463 49.2254 29.9463Z" fill="#7B61FF"></path>
  <path d="M18.3984 37.1733V38.0533C18.3984 42.48 21.9718 46.0533 26.3984 46.0533H37.5984C42.0251 46.0533 45.5984 42.48 45.5984 38.0533V37.1733C45.5984 36.8533 45.3584 36.6133 45.0384 36.6133H18.9584C18.6384 36.6133 18.3984 36.8533 18.3984 37.1733Z" fill="#7B61FF"></path>
  <path opacity="1" d="M18.3984 26.8263V25.9463C18.3984 21.5196 21.9718 17.9463 26.3984 17.9463H37.5984C42.0251 17.9463 45.5984 21.5196 45.5984 25.9463V26.8263C45.5984 27.1463 45.3584 27.3863 45.0384 27.3863H18.9584C18.6384 27.3863 18.3984 27.1463 18.3984 26.8263Z" fill="#C3BBFD"></path>
</svg>