<svg data-testid="how-it-word-image-in-card-4" width="64" height="64" viewBox="0 0 64 64" fill="currentColor" xmlns="http://www.w3.org/2000/svg">
  <path fill="#7B61FF"  opacity="0.4" d="M23.9987 5.33301C17.012 5.33301 11.332 11.013 11.332 17.9997C11.332 24.853 16.692 30.3997 23.6787 30.6397C23.892 30.613 24.1054 30.613 24.2654 30.6397C24.3187 30.6397 24.3454 30.6397 24.3987 30.6397C24.4254 30.6397 24.4254 30.6397 24.452 30.6397C31.2787 30.3997 36.6387 24.853 36.6654 17.9997C36.6654 11.013 30.9854 5.33301 23.9987 5.33301Z"></path>
  <path fill="#7B61FF"  d="M37.5466 37.7337C30.1066 32.7737 17.9732 32.7737 10.4799 37.7337C7.09323 40.0003 5.22656 43.067 5.22656 46.347C5.22656 49.627 7.09323 52.667 10.4532 54.907C14.1866 57.4137 19.0932 58.667 23.9999 58.667C28.9066 58.667 33.8132 57.4137 37.5466 54.907C40.9066 52.6403 42.7732 49.6003 42.7732 46.2937C42.7466 43.0137 40.9066 39.9737 37.5466 37.7337Z"></path>
  <path fill="#7B61FF"  opacity="0.4" d="M53.305 19.5733C53.7317 24.7466 50.0517 29.2799 44.9583 29.8933C44.9317 29.8933 44.9317 29.8933 44.905 29.8933H44.825C44.665 29.8933 44.505 29.8933 44.3717 29.9466C41.785 30.0799 39.4117 29.2533 37.625 27.7333C40.3717 25.2799 41.945 21.5999 41.625 17.5999C41.4383 15.4399 40.6917 13.4666 39.5717 11.7866C40.585 11.2799 41.7583 10.9599 42.9583 10.8533C48.185 10.3999 52.8517 14.2933 53.305 19.5733Z"></path>
  <path fill="#7B61FF"  d="M58.6419 44.2398C58.4286 46.8264 56.7753 49.0664 54.0019 50.5864C51.3353 52.0531 47.9753 52.7464 44.6419 52.6664C46.5619 50.9331 47.6819 48.7731 47.8953 46.4798C48.1619 43.1731 46.5886 39.9998 43.4419 37.4664C41.6553 36.0531 39.5753 34.9331 37.3086 34.1064C43.2019 32.3998 50.6153 33.5464 55.1753 37.2264C57.6286 39.1998 58.8819 41.6798 58.6419 44.2398Z"></path>
</svg>
